<?xml version="1.0" standalone="no"?>
<!DOCTYPE svg PUBLIC "-//W3C//DTD SVG 20010904//EN"
 "http://www.w3.org/TR/2001/REC-SVG-20010904/DTD/svg10.dtd">
<svg version="1.0" xmlns="http://www.w3.org/2000/svg"
 width="512.000000pt" height="512.000000pt" viewBox="0 0 512.000000 512.000000"
 preserveAspectRatio="xMidYMid meet">

<g transform="translate(0.000000,512.000000) scale(0.100000,-0.100000)"
fill="#bebebe" stroke="none">
<path d="M2405 4954 c-948 -102 -1602 -992 -1410 -1920 25 -125 85 -313 129
-411 14 -30 26 -57 26 -59 0 -2 -26 -4 -58 -4 -175 0 -351 -108 -430 -266 -20
-40 -74 -231 -167 -589 -238 -919 -255 -991 -255 -1053 0 -171 109 -356 256
-434 114 -62 -11 -58 2064 -58 2075 0 1950 -4 2064 58 158 84 268 287 253 467
-7 95 -384 1538 -419 1609 -79 158 -255 266 -430 266 -32 0 -58 2 -58 4 0 2
11 29 25 61 218 491 216 1005 -6 1446 -224 449 -633 761 -1124 859 -98 20
-368 34 -460 24z m425 -343 c238 -54 441 -164 615 -332 192 -186 315 -409 372
-679 26 -127 24 -371 -5 -506 -59 -272 -200 -569 -416 -873 -75 -107 -90 -147
-75 -205 27 -109 159 -161 242 -96 14 11 59 67 101 124 108 148 190 196 332
196 105 0 161 -36 188 -119 34 -105 376 -1449 376 -1477 0 -51 -41 -115 -90
-141 l-43 -23 -1870 0 -1870 0 -43 25 c-46 27 -84 90 -84 140 0 28 359 1434
381 1492 6 15 20 39 32 52 39 42 77 51 220 51 l134 0 47 -76 c70 -109 238
-331 358 -469 185 -214 534 -551 709 -683 106 -80 150 -73 296 47 152 125 314
277 340 320 56 90 -3 214 -107 228 -77 11 -104 -2 -203 -95 -51 -48 -118 -109
-150 -136 l-57 -48 -97 85 c-142 123 -433 422 -554 568 -607 734 -772 1373
-500 1934 146 299 411 538 720 649 76 27 215 61 286 69 87 10 330 -3 415 -22z"/>
<path d="M2420 3984 c-111 -23 -224 -86 -311 -173 -251 -252 -252 -651 0 -901
254 -252 650 -253 901 -1 253 254 253 648 0 902 -155 156 -374 220 -590 173z
m291 -345 c67 -36 98 -68 137 -143 22 -43 26 -64 26 -136 1 -78 -2 -90 -33
-148 -38 -70 -70 -100 -145 -140 -44 -22 -63 -26 -136 -26 -100 0 -160 24
-225 89 -66 65 -90 125 -90 225 0 100 24 160 90 225 100 100 249 121 376 54z"/>
</g>
</svg>
