<?xml version="1.0" standalone="no"?>
<!DOCTYPE svg PUBLIC "-//W3C//DTD SVG 20010904//EN"
 "http://www.w3.org/TR/2001/REC-SVG-20010904/DTD/svg10.dtd">
<svg version="1.0" xmlns="http://www.w3.org/2000/svg"
 width="512.000000pt" height="512.000000pt" viewBox="0 0 512.000000 512.000000"
 preserveAspectRatio="xMidYMid meet">

<g transform="translate(0.000000,512.000000) scale(0.100000,-0.100000)"
fill="hsl(0, 0%, 80%)" stroke="none">
<path d="M2085 4155 c-676 -79 -1297 -368 -1778 -826 -83 -80 -87 -86 -87
-127 0 -58 41 -102 94 -102 30 0 48 11 109 65 262 235 475 384 722 505 241
118 464 195 705 243 227 46 301 52 590 51 232 0 297 -4 415 -22 590 -92 1084
-328 1538 -736 133 -119 158 -129 215 -81 67 57 49 109 -79 228 -498 459
-1123 740 -1798 807 -139 14 -510 11 -646 -5z"/>
<path d="M2290 3389 c-453 -24 -911 -200 -1265 -486 -114 -92 -212 -189 -219
-218 -9 -37 18 -91 54 -110 49 -25 83 -11 169 68 309 287 693 469 1122 531
136 20 419 21 557 1 426 -61 811 -241 1115 -524 43 -39 90 -76 104 -82 80 -30
159 61 120 137 -27 51 -214 210 -374 317 -398 266 -877 393 -1383 366z"/>
<path d="M2235 2623 c-146 -18 -337 -75 -482 -144 -166 -79 -410 -264 -438
-334 -18 -41 -8 -81 27 -110 51 -43 86 -35 170 40 197 177 439 296 687 339
122 21 339 21 462 0 248 -42 502 -167 688 -339 81 -75 121 -83 173 -36 27 24
33 36 33 71 0 40 -5 47 -77 115 -222 209 -525 353 -831 394 -73 10 -344 13
-412 4z"/>
<path d="M3913 1998 c-34 -9 -60 -39 -63 -73 -6 -59 1 -69 190 -259 l190 -192
-185 -184 c-186 -185 -207 -214 -197 -267 8 -42 50 -73 99 -73 45 0 45 0 237
189 l191 190 191 -190 c191 -189 191 -189 236 -189 61 0 98 37 98 99 0 43 -2
46 -189 235 l-190 191 190 191 c189 192 189 192 189 237 0 49 -31 91 -73 99
-53 10 -82 -11 -267 -197 l-184 -185 -191 189 c-118 117 -199 190 -215 193
-14 2 -40 0 -57 -4z"/>
<path d="M2317 1889 c-176 -41 -326 -206 -357 -390 -39 -230 107 -462 333
-531 89 -27 224 -22 310 11 127 50 241 169 283 298 28 84 25 228 -6 308 -58
150 -178 261 -325 300 -64 16 -177 18 -238 4z m239 -217 c97 -49 163 -170 151
-274 -29 -238 -321 -336 -479 -160 -53 59 -71 105 -71 187 -1 99 35 166 125
234 61 46 198 52 274 13z"/>
</g>
</svg>
